<svg id="Capa_1" enable-background="new 0 0 512 512" height="512" viewBox="0 0 512 512" width="512" xmlns="http://www.w3.org/2000/svg"><g><path d="m437 151h-106v-15c0-21.217-8.87-40.389-23.079-54.045 8.125-12.833 22.406-20.955 38.046-20.955v-30c-26.046 0-49.829 13.52-63.375 34.887-8.271-3.148-17.23-4.887-26.592-4.887-9.372 0-18.34 1.743-26.618 4.897-13.545-21.373-37.332-34.897-63.382-34.897v30c15.649 0 29.935 8.13 38.059 20.975-14.197 13.654-23.059 32.818-23.059 54.025v15h-106c-41.355 0-75 33.645-75 75s33.645 75 75 75c26.709 0 51.796-5.098 76.004-14.51.151 82.828 67.99 140.78 89.996 157.399v37.111h30v-37.109c21.986-16.606 89.67-74.436 89.992-157.086 24.175 9.342 49.923 14.195 76.008 14.195 41.355 0 75-33.645 75-75s-33.645-75-75-75zm-226-15c0-24.813 20.187-45 45-45s45 20.187 45 45v15c-34.938 0-60.443 0-90 0zm115.583 133.791c.668.409 1.34.808 2.012 1.209h-145.774c29.829-17.699 55.237-42.538 73.173-72.662 17.221 29.038 41.391 53.556 70.589 71.453zm-251.583 1.209c-24.813 0-45-20.187-45-45s20.187-45 45-45h156.387c-31.731 54.989-91.401 90-156.387 90zm180.98 146.509c-11.934-9.451-34.329-29.249-51.554-56.509h103.05c-17.231 27.216-39.596 47.045-51.496 56.509zm66.593-86.509h-133.195c-3.536-9.458-6.164-19.48-7.463-30h148.164c-1.307 10.512-3.951 20.535-7.506 30zm114.427-60c-64.41 0-124.697-35.011-156.39-90h156.39c24.813 0 45 20.187 45 45s-20.187 45-45 45z"/></g></svg>